<svg width="20" height="20" viewBox="0 0 20 20" fill="none" xmlns="http://www.w3.org/2000/svg">
<g id="material-symbols:arrow-forward-ios-rounded">
<path id="Vector" d="M5.95834 17.5833C5.75001 17.3749 5.64584 17.1283 5.64584 16.8433C5.64584 16.5588 5.75001 16.3124 5.95834 16.1041L12.0625 9.99992L5.93751 3.87492C5.74307 3.68047 5.64584 3.43742 5.64584 3.14575C5.64584 2.85409 5.75001 2.60409 5.95834 2.39575C6.16668 2.18742 6.41334 2.08325 6.69834 2.08325C6.98279 2.08325 7.22918 2.18742 7.43751 2.39575L14.4375 9.41658C14.5208 9.49992 14.58 9.5902 14.615 9.68742C14.6495 9.78464 14.6667 9.88881 14.6667 9.99992C14.6667 10.111 14.6495 10.2152 14.615 10.3124C14.58 10.4096 14.5208 10.4999 14.4375 10.5833L7.41668 17.6041C7.22223 17.7985 6.98279 17.8958 6.69834 17.8958C6.41334 17.8958 6.16668 17.7916 5.95834 17.5833Z" fill="black" fill-opacity="0.6"/>
</g>
</svg>
