<svg width="44" height="14" viewBox="0 0 44 14" fill="none" xmlns="http://www.w3.org/2000/svg">
<g id="logos:visa" clip-path="url(#clip0_290_275)">
<path id="Vector" d="M22.6763 4.4577C22.6516 6.40016 24.4074 7.48407 25.7299 8.12857C27.0888 8.78978 27.5452 9.21383 27.5398 9.8052C27.5297 10.7101 26.4559 11.1096 25.4511 11.1251C23.6981 11.1522 22.6788 10.6518 21.8685 10.2733L21.237 13.2283C22.05 13.6029 23.5554 13.9296 25.1165 13.944C28.7809 13.944 31.1783 12.1351 31.1913 9.33055C31.2056 5.77118 26.268 5.57416 26.3018 3.98322C26.3134 3.50081 26.7737 2.98602 27.7824 2.85513C28.2817 2.78901 29.6599 2.7384 31.2225 3.45797L31.8358 0.598934C30.9955 0.292958 29.9154 -2.95639e-05 28.5708 -2.95639e-05C25.1217 -2.95639e-05 22.6958 1.83346 22.6763 4.4577ZM37.729 0.246235C37.0598 0.246235 36.4959 0.636548 36.2443 1.23551L31.0098 13.734H34.6716L35.4002 11.7202H39.8748L40.2975 13.734H43.525L40.7086 0.246235H37.729ZM38.2412 3.88978L39.298 8.95457H36.4039L38.2412 3.88978ZM18.2366 0.246404L15.3502 13.7338H18.8396L21.7246 0.246067H18.2366M13.0746 0.246067L9.44272 9.42652L7.97356 1.62077C7.80118 0.749393 7.12041 0.246235 6.36441 0.246235H0.427395L0.344238 0.637897C1.56308 0.90238 2.9479 1.32896 3.78689 1.78539C4.30033 2.06421 4.44674 2.30795 4.61542 2.9705L7.39805 13.734H11.0854L16.7387 0.246235H13.0746" fill="url(#paint0_linear_290_275)"/>
</g>
<defs>
<linearGradient id="paint0_linear_290_275" x1="20.1961" y1="14.2237" x2="20.5998" y2="-0.0970052" gradientUnits="userSpaceOnUse">
<stop stop-color="#222357"/>
<stop offset="1" stop-color="#254AA5"/>
</linearGradient>
<clipPath id="clip0_290_275">
<rect width="43.1807" height="14" fill="white" transform="translate(0.344238)"/>
</clipPath>
</defs>
</svg>
