<svg width="32" height="24" viewBox="0 0 32 24" fill="none" xmlns="http://www.w3.org/2000/svg">
<g id="logos:mastercard" clip-path="url(#clip0_290_277)">
<path id="Vector" d="M6.13773 23.8807V22.2922C6.13773 21.6832 5.76699 21.2861 5.13154 21.2861C4.81387 21.2861 4.46967 21.392 4.23136 21.7362C4.04611 21.445 3.78139 21.2861 3.38424 21.2861C3.1194 21.2861 2.85479 21.3655 2.64289 21.6567V21.3391H2.08691V23.8807H2.64289V22.4775C2.64289 22.0275 2.88121 21.8156 3.25194 21.8156C3.62243 21.8156 3.80792 22.0539 3.80792 22.4775V23.8807H4.3639V22.4775C4.3639 22.0275 4.6285 21.8156 4.9727 21.8156C5.34344 21.8156 5.52868 22.0539 5.52868 22.4775V23.8807H6.13773ZM14.3714 21.3391H13.4714V20.5713H12.9154V21.3391H12.4123V21.842H12.9153V23.007C12.9153 23.5895 13.1536 23.9336 13.789 23.9336C14.0273 23.9336 14.2919 23.8543 14.4774 23.7484L14.3185 23.2717C14.1596 23.3776 13.9744 23.4042 13.842 23.4042C13.5772 23.4042 13.4714 23.2453 13.4714 22.9805V21.842H14.3714V21.3391ZM19.0841 21.286C18.7664 21.286 18.5547 21.445 18.4222 21.6567V21.3391H17.8663V23.8807H18.4222V22.451C18.4222 22.0275 18.6075 21.7892 18.9517 21.7892C19.0576 21.7892 19.19 21.8157 19.2959 21.8421L19.4547 21.3127C19.3488 21.2861 19.19 21.2861 19.0841 21.2861V21.286ZM11.9623 21.5509C11.6974 21.3655 11.3268 21.2861 10.9296 21.2861C10.2943 21.2861 9.87075 21.6038 9.87075 22.1068C9.87075 22.5305 10.1884 22.7687 10.7444 22.8482L11.0091 22.8747C11.3004 22.9275 11.4592 23.007 11.4592 23.1394C11.4592 23.3247 11.2474 23.4571 10.8767 23.4571C10.5061 23.4571 10.2148 23.3247 10.0295 23.1924L9.76474 23.6159C10.056 23.8277 10.4531 23.9336 10.8502 23.9336C11.5915 23.9336 12.0152 23.5895 12.0152 23.1129C12.0152 22.6628 11.671 22.4245 11.1414 22.3451L10.8767 22.3186C10.6384 22.2921 10.4531 22.2393 10.4531 22.0804C10.4531 21.8951 10.6384 21.7892 10.9296 21.7892C11.2474 21.7892 11.5651 21.9215 11.7239 22.0009L11.9623 21.5509ZM26.7355 21.2861C26.4177 21.2861 26.2059 21.445 26.0735 21.6567V21.3391H25.5175V23.8807H26.0735V22.451C26.0735 22.0275 26.2589 21.7892 26.603 21.7892C26.709 21.7892 26.8414 21.8157 26.9473 21.8421L27.1061 21.3127C27.0002 21.2861 26.8414 21.2861 26.7355 21.2861ZM19.6401 22.6099C19.6401 23.3776 20.1695 23.9336 20.9904 23.9336C21.361 23.9336 21.6257 23.8543 21.8904 23.6425L21.6257 23.1924C21.4139 23.3512 21.2021 23.4306 20.9638 23.4306C20.5137 23.4306 20.1961 23.1129 20.1961 22.6099C20.1961 22.1334 20.5137 21.8156 20.9638 21.7892C21.2021 21.7892 21.4139 21.8685 21.6257 22.0275L21.8904 21.5774C21.6257 21.3655 21.361 21.2861 20.9904 21.2861C20.1695 21.2861 19.6401 21.8421 19.6401 22.6099ZM24.7763 22.6099V21.3391H24.2203V21.6567C24.035 21.4186 23.7703 21.2861 23.4261 21.2861C22.7112 21.2861 22.1553 21.8421 22.1553 22.6099C22.1553 23.3776 22.7112 23.9336 23.4261 23.9336C23.7967 23.9336 24.0615 23.8013 24.2203 23.563V23.8807H24.7763V22.6099ZM22.7376 22.6099C22.7376 22.1598 23.0289 21.7892 23.5054 21.7892C23.9555 21.7892 24.2733 22.1334 24.2733 22.6099C24.2733 23.06 23.9555 23.4306 23.5054 23.4306C23.0289 23.404 22.7376 23.06 22.7376 22.6099ZM16.0924 21.2861C15.3511 21.2861 14.8215 21.8156 14.8215 22.6099C14.8215 23.4042 15.351 23.9336 16.1188 23.9336C16.4894 23.9336 16.8602 23.8277 17.1514 23.5895L16.8866 23.1924C16.6748 23.3512 16.4101 23.4571 16.1454 23.4571C15.8012 23.4571 15.457 23.2983 15.3775 22.8481H17.2573V22.6364C17.2839 21.8156 16.8072 21.2861 16.0923 21.2861H16.0924ZM16.0924 21.7626C16.4365 21.7626 16.6749 21.9745 16.7278 22.3717H15.404C15.457 22.0275 15.6953 21.7626 16.0924 21.7626ZM29.886 22.6099V20.333H29.3301V21.6567C29.1447 21.4186 28.88 21.2861 28.5358 21.2861C27.8209 21.2861 27.265 21.8421 27.265 22.6099C27.265 23.3776 27.8209 23.9336 28.5358 23.9336C28.9065 23.9336 29.1712 23.8013 29.3301 23.563V23.8807H29.886V22.6099ZM27.8475 22.6099C27.8475 22.1598 28.1386 21.7892 28.6152 21.7892C29.0653 21.7892 29.383 22.1334 29.383 22.6099C29.383 23.06 29.0653 23.4306 28.6152 23.4306C28.1386 23.404 27.8475 23.06 27.8475 22.6099ZM9.26171 22.6099V21.3391H8.70573V21.6567C8.52036 21.4186 8.25564 21.2861 7.91144 21.2861C7.19662 21.2861 6.64064 21.8421 6.64064 22.6099C6.64064 23.3776 7.19662 23.9336 7.91144 23.9336C8.28217 23.9336 8.54689 23.8013 8.70573 23.563V23.8807H9.26171V22.6099ZM7.19662 22.6099C7.19662 22.1598 7.48788 21.7892 7.96438 21.7892C8.41447 21.7892 8.73226 22.1334 8.73226 22.6099C8.73226 23.06 8.41447 23.4306 7.96438 23.4306C7.48788 23.404 7.19662 23.06 7.19662 22.6099Z" fill="black"/>
<path id="Vector_2" d="M11.7769 2.03857H20.1166V17.0236H11.7769V2.03857Z" fill="#FF5F00"/>
<path id="Vector_3" d="M12.3065 9.53114C12.3065 6.48651 13.7361 3.78597 15.9335 2.03855C14.3186 0.767759 12.2801 0 10.0562 0C4.78737 0 0.524902 4.26247 0.524902 9.53114C0.524902 14.7997 4.78737 19.0623 10.056 19.0623C12.28 19.0623 14.3185 18.2945 15.9335 17.0236C13.7361 15.3027 12.3065 12.5758 12.3065 9.53114Z" fill="#EB001B"/>
<path id="Vector_4" d="M31.3686 9.53114C31.3686 14.7997 27.1061 19.0623 21.8374 19.0623C19.6135 19.0623 17.575 18.2945 15.96 17.0236C18.1839 15.2763 19.5871 12.5758 19.5871 9.53114C19.5871 6.48651 18.1573 3.78597 15.96 2.03855C17.5748 0.767759 19.6135 0 21.8374 0C27.1061 0 31.3687 4.28901 31.3687 9.53114H31.3686Z" fill="#F79E1B"/>
</g>
<defs>
<clipPath id="clip0_290_277">
<rect width="30.8744" height="24" fill="white" transform="translate(0.524902)"/>
</clipPath>
</defs>
</svg>
