<svg width="32" height="33" viewBox="0 0 32 33" fill="none" xmlns="http://www.w3.org/2000/svg">
<circle cx="16" cy="16.5" r="16" fill="white" fill-opacity="0.1"/>
<circle cx="28" cy="5" r="4" fill="#EB5757"/>
<path d="M14.5 17.3201C14.7486 17.3201 14.9871 17.4189 15.1629 17.5947C15.3387 17.7705 15.4375 18.009 15.4375 18.2576C15.4375 18.5062 15.3387 18.7447 15.1629 18.9205C14.9871 19.0963 14.7486 19.1951 14.5 19.1951C14.2514 19.1951 14.0129 19.0963 13.8371 18.9205C13.6613 18.7447 13.5625 18.5062 13.5625 18.2576C13.5625 18.009 13.6613 17.7705 13.8371 17.5947C14.0129 17.4189 14.2514 17.3201 14.5 17.3201ZM14.5 10.0046C16.0465 10.0046 17.2795 11.2736 17.2795 12.9296C17.2795 13.8086 16.9585 14.2916 16.189 14.9066L15.7735 15.2291C15.4045 15.5201 15.28 15.6791 15.2545 15.9011L15.238 16.1351C15.2046 16.3195 15.1034 16.4848 14.9543 16.5983C14.8051 16.7118 14.6189 16.7654 14.4322 16.7484C14.2456 16.7315 14.072 16.6453 13.9458 16.5068C13.8195 16.3683 13.7497 16.1875 13.75 16.0001C13.75 15.1451 14.065 14.6741 14.824 14.0681L15.241 13.7456C15.673 13.4006 15.781 13.2326 15.781 12.9296C15.781 12.0926 15.208 11.5046 14.5 11.5046C13.759 11.5046 13.2115 12.0536 13.2205 12.9221C13.2225 13.121 13.1454 13.3126 13.0061 13.4546C12.9372 13.525 12.8551 13.581 12.7644 13.6196C12.6738 13.6582 12.5765 13.6786 12.478 13.6796C12.2791 13.6816 12.0875 13.6045 11.9455 13.4652C11.8034 13.326 11.7225 13.136 11.7205 12.9371C11.704 11.2301 12.928 10.0046 14.5 10.0046ZM7.00001 14.5001C7.00062 12.8772 7.52766 11.2982 8.502 10.0003C9.47635 8.70234 10.8454 7.75549 12.4037 7.30186C13.9619 6.84823 15.6253 6.9123 17.1441 7.48446C18.6628 8.05661 19.955 9.10598 20.8266 10.475C21.6982 11.844 22.1022 13.4589 21.978 15.0771C21.8538 16.6952 21.208 18.2295 20.1376 19.4494C19.0672 20.6693 17.63 21.5092 16.0417 21.8428C14.4534 22.1764 12.7998 21.9858 11.329 21.2996L7.89701 21.9851C7.77602 22.0092 7.65097 22.0031 7.53292 21.9673C7.41487 21.9315 7.30747 21.8671 7.22024 21.7799C7.13302 21.6926 7.06865 21.5852 7.03285 21.4672C6.99705 21.3491 6.99092 21.2241 7.01501 21.1031L7.70051 17.6696C7.23765 16.6772 6.99851 15.5952 7.00001 14.5001ZM14.5 8.5001C13.473 8.49984 12.4631 8.76321 11.567 9.26499C10.6709 9.76677 9.91862 10.4902 9.38215 11.3659C8.84567 12.2417 8.54297 13.2405 8.50303 14.2667C8.46308 15.293 8.68723 16.3123 9.15401 17.2271C9.23104 17.3778 9.25483 17.5502 9.22151 17.7161L8.70551 20.2946L11.284 19.7786C11.45 19.7453 11.6223 19.7691 11.773 19.8461C12.5811 20.2579 13.472 20.4811 14.3788 20.4989C15.2855 20.5168 16.1846 20.3289 17.0082 19.9493C17.8319 19.5697 18.5589 19.0083 19.1343 18.3074C19.7098 17.6064 20.1189 16.7841 20.3309 15.9023C20.5428 15.0204 20.5521 14.102 20.358 13.2161C20.1639 12.3302 19.7715 11.4998 19.2103 10.7873C18.6491 10.0749 17.9337 9.49891 17.1178 9.10276C16.302 8.7066 15.407 8.50055 14.5 8.5001ZM12.79 23.3381C14.1228 24.4161 15.7858 25.0029 17.5 25.0001C18.631 25.0001 19.705 24.7496 20.6695 24.2996L24.103 24.9851C24.224 25.0092 24.3491 25.0031 24.4671 24.9673C24.5851 24.9315 24.6925 24.8671 24.7798 24.7799C24.867 24.6926 24.9314 24.5852 24.9672 24.4672C25.003 24.3491 25.0091 24.2241 24.985 24.1031L24.2995 20.6711C24.7495 19.7066 25 18.6311 25 17.5001C25.0025 15.7864 24.4157 14.124 23.338 12.7916C23.5517 13.9021 23.5553 15.0428 23.3485 16.1546C23.663 17.5291 23.4852 18.9703 22.846 20.2271C22.769 20.3778 22.7452 20.5502 22.7785 20.7161L23.2945 23.2946L20.7145 22.7786C20.549 22.7456 20.3773 22.7694 20.227 22.8461C18.97 23.4863 17.5279 23.6641 16.153 23.3486C15.0412 23.5553 13.9005 23.5518 12.79 23.3381Z" fill="white"/>
</svg>
