<svg width="43" height="43" viewBox="0 0 43 43" fill="none" xmlns="http://www.w3.org/2000/svg">
<path fill-rule="evenodd" clip-rule="evenodd" d="M21.5002 3.58325C11.5922 3.58325 3.5835 11.592 3.5835 21.4999C3.5835 31.4078 11.5922 39.4166 21.5002 39.4166C31.4081 39.4166 39.4168 31.4078 39.4168 21.4999C39.4168 11.592 31.4081 3.58325 21.5002 3.58325ZM21.5002 35.8333C13.5989 35.8333 7.16683 29.4012 7.16683 21.4999C7.16683 13.5987 13.5989 7.16659 21.5002 7.16659C29.4014 7.16659 35.8335 13.5987 35.8335 21.4999C35.8335 29.4012 29.4014 35.8333 21.5002 35.8333ZM21.5002 18.9737L27.9322 12.5416L30.4585 15.0678L24.0264 21.4999L30.4585 27.932L27.9322 30.4583L21.5002 24.0262L15.0681 30.4583L12.5418 27.932L18.9739 21.4999L12.5418 15.0678L15.0681 12.5416L21.5002 18.9737Z" fill="black"/>
</svg>
