<svg width="8" height="27" viewBox="0 0 8 27" fill="none" xmlns="http://www.w3.org/2000/svg">
<path d="M2.071 17.009L0.924 0.0999982H7.806L6.659 17.009H2.071ZM4.365 26.296C3.329 26.296 2.478 25.963 1.812 25.297C1.146 24.631 0.813 23.8417 0.813 22.929C0.813 21.9917 1.146 21.2147 1.812 20.598C2.478 19.9567 3.329 19.636 4.365 19.636C5.42567 19.636 6.27667 19.9567 6.918 20.598C7.584 21.2147 7.917 21.9917 7.917 22.929C7.917 23.8417 7.584 24.631 6.918 25.297C6.27667 25.963 5.42567 26.296 4.365 26.296Z" fill="white"/>
</svg>
