<svg width="21" height="24" viewBox="0 0 21 24" fill="none" xmlns="http://www.w3.org/2000/svg">
<g id="logos:paypal" clip-path="url(#clip0_290_266)">
<path id="Vector" d="M17.2585 1.86808C16.1512 0.605932 14.1495 0.0648193 11.5887 0.0648193H4.15668C3.90332 0.0648287 3.65827 0.15522 3.46559 0.319742C3.27291 0.484263 3.14524 0.712123 3.10553 0.962356L0.0109601 20.5889C-0.0505498 20.9759 0.249132 21.3264 0.641397 21.3264H5.22969L6.38201 14.0174L6.34625 14.2463C6.42834 13.7296 6.87019 13.3486 7.39342 13.3486H9.57377C13.8571 13.3486 17.2109 11.6088 18.1906 6.57605C18.2197 6.4272 18.2449 6.28233 18.2667 6.14079C18.143 6.07531 18.143 6.07531 18.2667 6.14079C18.5584 4.28063 18.2647 3.01444 17.2585 1.86808Z" fill="#27346A"/>
<path id="Vector_2" d="M8.13766 5.4707C8.2631 5.41097 8.4003 5.38002 8.53923 5.3801H14.3658C15.0558 5.3801 15.6993 5.425 16.2874 5.51965C16.452 5.54589 16.6157 5.57722 16.7783 5.61359C17.0088 5.66445 17.2366 5.7267 17.4609 5.8001C17.7501 5.89666 18.0193 6.00911 18.2668 6.14079C18.5584 4.27992 18.2647 3.01444 17.2585 1.86808C16.1506 0.605932 14.1495 0.0648193 11.5887 0.0648193H4.15605C3.63274 0.0648193 3.18754 0.445799 3.10553 0.962356L0.0109606 20.5882C-0.0505494 20.9758 0.249133 21.3258 0.640762 21.3258H5.22969L7.62039 6.16527C7.6439 6.01625 7.70326 5.87518 7.79337 5.75419C7.88347 5.6332 8.00163 5.53591 8.13766 5.4707Z" fill="#27346A"/>
<path id="Vector_3" d="M18.1906 6.57613C17.2109 11.6082 13.8571 13.3487 9.57374 13.3487H7.39276C6.86953 13.3487 6.42759 13.7297 6.3463 14.2464L4.91273 23.3342C4.85917 23.6729 5.1211 23.9798 5.46378 23.9798H9.33159C9.55315 23.9797 9.76742 23.9006 9.93587 23.7567C10.1043 23.6128 10.2159 23.4135 10.2505 23.1946L10.2882 22.9975L11.0172 18.3775L11.0641 18.1221C11.0987 17.9033 11.2103 17.704 11.3787 17.5601C11.5472 17.4161 11.7614 17.337 11.983 17.3369H12.5618C16.3086 17.3369 19.2424 15.8148 20.0997 11.4124C20.4576 9.57271 20.2724 8.03671 19.3258 6.95782C19.0386 6.63104 18.6821 6.36116 18.2667 6.14087C18.2442 6.28312 18.2198 6.42728 18.1906 6.57613Z" fill="#2790C3"/>
<path id="Vector_4" d="M17.2412 5.73198C17.0884 5.68737 16.9342 5.64788 16.7788 5.61357C16.6161 5.5778 16.4524 5.54668 16.2879 5.52027C15.6992 5.42499 15.0561 5.38001 14.3655 5.38001H8.53966C8.40062 5.37969 8.26333 5.41091 8.1381 5.47132C8.00191 5.53633 7.88362 5.63356 7.79347 5.75458C7.70333 5.87561 7.64404 6.01679 7.62075 6.16589L6.38244 14.0174L6.34668 14.2463C6.42814 13.7296 6.86999 13.3486 7.3933 13.3486H9.57428C13.8576 13.3486 17.2114 11.6088 18.1911 6.57603C18.2202 6.42719 18.2447 6.28295 18.2672 6.14078C18.0191 6.00981 17.7506 5.89664 17.4614 5.80072C17.3884 5.77653 17.315 5.75361 17.2412 5.73198" fill="#1F264F"/>
</g>
<defs>
<clipPath id="clip0_290_266">
<rect width="20.3444" height="24" fill="white"/>
</clipPath>
</defs>
</svg>
