<svg width="186" height="30" viewBox="0 0 186 30" fill="none" xmlns="http://www.w3.org/2000/svg">
<rect x="8" y="8" width="2" height="14" rx="1" fill="#888888"/>
<rect x="108" y="7" width="2" height="16" rx="1" fill="#888888"/>
<rect x="4" y="9" width="2" height="12" rx="1" fill="#888888"/>
<rect y="12" width="2" height="6" rx="1" fill="#888888"/>
<rect x="52" y="3" width="2" height="24" rx="1" fill="#888888"/>
<rect x="160" y="8.00001" width="2" height="14" rx="1" fill="#888888"/>
<rect x="184" y="13.0001" width="2" height="4" rx="1" fill="#888888"/>
<rect x="112" y="5" width="2" height="20" rx="1" fill="#888888"/>
<rect x="56" y="5.99998" width="2" height="18" rx="1" fill="#888888"/>
<rect x="164" y="8.99999" width="2" height="12" rx="1" fill="#888888"/>
<rect x="16" y="9" width="2" height="12" rx="1" fill="#888888"/>
<rect x="24" y="7" width="2" height="16" rx="1" fill="#888888"/>
<rect x="20" y="8" width="2" height="14" rx="1" fill="#888888"/>
<rect x="176" y="11" width="2" height="8" rx="1" fill="#888888"/>
<rect x="180" y="12" width="2" height="6" rx="1" fill="#888888"/>
<rect x="104" y="6.00001" width="2" height="18" rx="1" fill="#888888"/>
<rect x="116" y="3" width="2" height="24" rx="1" fill="#888888"/>
<rect x="60" y="8" width="2" height="14" rx="1" fill="#888888"/>
<rect x="168" y="8" width="2" height="14" rx="1" fill="#888888"/>
<rect x="12" y="10" width="2" height="10" rx="1" fill="#888888"/>
<rect x="120" y="6" width="2" height="18" rx="1" fill="#888888"/>
<rect x="124" y="4" width="2" height="22" rx="1" fill="#888888"/>
<rect x="64" y="9" width="2" height="12" rx="1" fill="#888888"/>
<rect x="172" y="8.99999" width="2" height="12" rx="1" fill="#888888"/>
<rect x="32" y="8.99998" width="2" height="12" rx="1" fill="#888888"/>
<rect x="28" y="8.00001" width="2" height="14" rx="1" fill="#888888"/>
<rect x="44" y="7" width="2" height="16" rx="1" fill="#888888"/>
<rect x="152" y="5" width="2" height="20" rx="1" fill="#888888"/>
<rect x="96" y="10" width="2" height="10" rx="1" fill="#888888"/>
<rect x="48" y="5" width="2" height="20" rx="1" fill="#888888"/>
<rect x="156" y="6" width="2" height="18" rx="1" fill="#888888"/>
<rect x="100" y="8.00001" width="2" height="14" rx="1" fill="#888888"/>
<rect x="128" y="3" width="2.00001" height="24" rx="1" fill="#888888"/>
<rect x="72" y="1.99998" width="2" height="26" rx="1" fill="#888888"/>
<rect x="68" y="6.00005" width="2" height="18" rx="1" fill="#888888"/>
<rect x="144" y="5" width="2" height="20" rx="1" fill="#888888"/>
<rect x="88" y="5" width="2" height="20" rx="1" fill="#888888"/>
<rect x="40" y="10" width="2" height="10" rx="1" fill="#888888"/>
<rect x="36" y="11" width="2" height="8" rx="1" fill="#888888"/>
<rect x="148" y="8" width="2" height="14" rx="1" fill="#888888"/>
<rect x="92" y="8" width="2" height="14" rx="1" fill="#888888"/>
<rect x="140" y="3.99999" width="2" height="22" rx="1" fill="#888888"/>
<rect x="136" y="1.99999" width="2.00001" height="26" rx="1" fill="#888888"/>
<rect x="132" y="0.999987" width="2.00001" height="28" rx="1" fill="#888888"/>
<rect x="76" y="1.00001" width="2.00001" height="28" rx="1" fill="#888888"/>
<rect x="80" y="5.72205e-06" width="2.00001" height="30" rx="1" fill="#888888"/>
<rect x="84" y="2" width="2" height="26" rx="1" fill="#888888"/>
</svg>
