<svg width="186" height="30" viewBox="0 0 186 30" fill="none" xmlns="http://www.w3.org/2000/svg">
<rect x="178" y="26" width="2" height="22" rx="1" transform="rotate(-180 178 26)" fill="#888888"/>
<rect x="78" y="26" width="2" height="22" rx="1" transform="rotate(-180 78 26)" fill="#888888"/>
<rect x="182" y="24" width="2" height="18" rx="1" transform="rotate(-180 182 24)" fill="#888888"/>
<rect x="186" y="20" width="2" height="10" rx="1" transform="rotate(-180 186 20)" fill="#888888"/>
<rect x="134" y="22" width="2" height="14" rx="1" transform="rotate(-180 134 22)" fill="#888888"/>
<rect x="26" y="21" width="2" height="12" rx="1" transform="rotate(-180 26 21)" fill="#888888"/>
<rect x="2" y="18" width="2" height="6" rx="1" transform="rotate(-180 2 18)" fill="#888888"/>
<rect x="74" y="25" width="2" height="20" rx="1" transform="rotate(-180 74 25)" fill="#888888"/>
<rect x="130" y="24" width="2" height="18" rx="1" transform="rotate(-180 130 24)" fill="#888888"/>
<rect x="22" y="22" width="2" height="14" rx="1" transform="rotate(-180 22 22)" fill="#888888"/>
<rect x="170" y="29" width="2" height="27" rx="1" transform="rotate(-180 170 29)" fill="#888888"/>
<rect x="162" y="24" width="2" height="18" rx="1" transform="rotate(-180 162 24)" fill="#888888"/>
<rect x="166" y="27" width="2" height="24" rx="1" transform="rotate(-180 166 27)" fill="#888888"/>
<rect x="10" y="24" width="2" height="18" rx="1" transform="rotate(-180 10 24)" fill="#888888"/>
<rect x="6" y="20" width="2" height="10" rx="1" transform="rotate(-180 6 20)" fill="#888888"/>
<rect x="82" y="28" width="2" height="26" rx="1" transform="rotate(-180 82 28)" fill="#888888"/>
<rect x="70" y="22" width="2" height="14" rx="1" transform="rotate(-180 70 22)" fill="#888888"/>
<rect x="126" y="23" width="2" height="16" rx="1" transform="rotate(-180 126 23)" fill="#888888"/>
<rect x="18" y="25" width="2" height="20" rx="1" transform="rotate(-180 18 25)" fill="#888888"/>
<rect x="174" y="25" width="2" height="20" rx="1" transform="rotate(-180 174 25)" fill="#888888"/>
<rect x="66" y="20" width="2" height="10" rx="1" transform="rotate(-180 66 20)" fill="#888888"/>
<rect x="62" y="23" width="2" height="16" rx="1" transform="rotate(-180 62 23)" fill="#888888"/>
<rect x="122" y="25" width="2" height="20" rx="1" transform="rotate(-180 122 25)" fill="#888888"/>
<rect x="14" y="22" width="2" height="14" rx="1" transform="rotate(-180 14 22)" fill="#888888"/>
<rect x="154" y="23" width="2" height="16" rx="1" transform="rotate(-180 154 23)" fill="#888888"/>
<rect x="158" y="21" width="2" height="12" rx="1" transform="rotate(-180 158 21)" fill="#888888"/>
<rect x="142" y="20" width="2" height="10" rx="1" transform="rotate(-180 142 20)" fill="#888888"/>
<rect x="34" y="25" width="2" height="20" rx="1" transform="rotate(-180 34 25)" fill="#888888"/>
<rect x="90" y="26" width="2" height="22" rx="1" transform="rotate(-180 90 26)" fill="#888888"/>
<rect x="138" y="23" width="2" height="16" rx="1" transform="rotate(-180 138 23)" fill="#888888"/>
<rect x="30" y="23" width="2" height="16" rx="1" transform="rotate(-180 30 23)" fill="#888888"/>
<rect x="86" y="30" width="2" height="30" rx="1" transform="rotate(-180 86 30)" fill="#888888"/>
<rect x="58" y="25" width="2.00001" height="20" rx="1" transform="rotate(-180 58 25)" fill="#888888"/>
<rect x="114" y="25" width="2" height="20" rx="1" transform="rotate(-180 114 25)" fill="#888888"/>
<rect x="118" y="27" width="2" height="24" rx="1" transform="rotate(-180 118 27)" fill="#888888"/>
<rect x="42" y="21" width="2" height="12" rx="1" transform="rotate(-180 42 21)" fill="#888888"/>
<rect x="98" y="21" width="2" height="12" rx="1" transform="rotate(-180 98 21)" fill="#888888"/>
<rect x="146" y="22" width="2" height="14" rx="1" transform="rotate(-180 146 22)" fill="#888888"/>
<rect x="150" y="24" width="2" height="18" rx="1" transform="rotate(-180 150 24)" fill="#888888"/>
<rect x="38" y="23" width="2" height="16" rx="1" transform="rotate(-180 38 23)" fill="#888888"/>
<rect x="94" y="23" width="2" height="16" rx="1" transform="rotate(-180 94 23)" fill="#888888"/>
<rect x="46" y="24" width="2" height="18" rx="1" transform="rotate(-180 46 24)" fill="#888888"/>
<rect x="50" y="26" width="2.00001" height="22" rx="1" transform="rotate(-180 50 26)" fill="#888888"/>
<rect x="54" y="28" width="2.00001" height="26" rx="1" transform="rotate(-180 54 28)" fill="#888888"/>
<rect x="110" y="24" width="2" height="18" rx="1" transform="rotate(-180 110 24)" fill="#888888"/>
<rect x="106" y="21" width="2" height="12" rx="1" transform="rotate(-180 106 21)" fill="#888888"/>
<rect x="102" y="19" width="2" height="8" rx="1" transform="rotate(-180 102 19)" fill="#888888"/>
</svg>
