<svg width="186" height="30" viewBox="0 0 186 30" fill="none" xmlns="http://www.w3.org/2000/svg">
<rect x="178" y="30" width="2" height="30" rx="1" transform="rotate(-180 178 30)" fill="#888888"/>
<rect x="78" y="28" width="2" height="26" rx="1" transform="rotate(-180 78 28)" fill="#888888"/>
<rect x="182" y="28" width="2" height="26" rx="1" transform="rotate(-180 182 28)" fill="#888888"/>
<rect x="186" y="25" width="2" height="20" rx="1" transform="rotate(-180 186 25)" fill="#888888"/>
<rect x="134" y="23" width="2" height="16" rx="1" transform="rotate(-180 134 23)" fill="#888888"/>
<rect x="26" y="23" width="2" height="16" rx="1" transform="rotate(-180 26 23)" fill="#888888"/>
<rect x="2" y="18" width="2" height="6" rx="1" transform="rotate(-180 2 18)" fill="#888888"/>
<rect x="74" y="25" width="2" height="20" rx="1" transform="rotate(-180 74 25)" fill="#888888"/>
<rect x="130" y="25" width="2" height="20" rx="1" transform="rotate(-180 130 25)" fill="#888888"/>
<rect x="22" y="28" width="2" height="26" rx="1" transform="rotate(-180 22 28)" fill="#888888"/>
<rect x="170" y="25" width="2" height="20" rx="1" transform="rotate(-180 170 25)" fill="#888888"/>
<rect x="162" y="25" width="2" height="20" rx="1" transform="rotate(-180 162 25)" fill="#888888"/>
<rect x="166" y="22" width="2" height="14" rx="1" transform="rotate(-180 166 22)" fill="#888888"/>
<rect x="10" y="27" width="2" height="24" rx="1" transform="rotate(-180 10 27)" fill="#888888"/>
<rect x="6" y="20" width="2" height="10" rx="1" transform="rotate(-180 6 20)" fill="#888888"/>
<rect x="82" y="27" width="2" height="24" rx="1" transform="rotate(-180 82 27)" fill="#888888"/>
<rect x="70" y="27" width="2" height="24" rx="1" transform="rotate(-180 70 27)" fill="#888888"/>
<rect x="126" y="28" width="2" height="26" rx="1" transform="rotate(-180 126 28)" fill="#888888"/>
<rect x="18" y="25" width="2" height="20" rx="1" transform="rotate(-180 18 25)" fill="#888888"/>
<rect x="174" y="28" width="2" height="26" rx="1" transform="rotate(-180 174 28)" fill="#888888"/>
<rect x="66" y="25" width="2" height="20" rx="1" transform="rotate(-180 66 25)" fill="#888888"/>
<rect x="62" y="23" width="2" height="16" rx="1" transform="rotate(-180 62 23)" fill="#888888"/>
<rect x="122" y="25" width="2" height="20" rx="1" transform="rotate(-180 122 25)" fill="#888888"/>
<rect x="14" y="23" width="2" height="16" rx="1" transform="rotate(-180 14 23)" fill="#888888"/>
<rect x="154" y="27" width="2" height="24" rx="1" transform="rotate(-180 154 27)" fill="#888888"/>
<rect x="158" y="28" width="2" height="26" rx="1" transform="rotate(-180 158 28)" fill="#888888"/>
<rect x="142" y="18" width="2" height="6" rx="1" transform="rotate(-180 142 18)" fill="#888888"/>
<rect x="34" y="25" width="2" height="20" rx="1" transform="rotate(-180 34 25)" fill="#888888"/>
<rect x="90" y="23" width="2" height="16" rx="1" transform="rotate(-180 90 23)" fill="#888888"/>
<rect x="138" y="20" width="2" height="10" rx="1" transform="rotate(-180 138 20)" fill="#888888"/>
<rect x="30" y="25" width="2" height="20" rx="1" transform="rotate(-180 30 25)" fill="#888888"/>
<rect x="86" y="28" width="2" height="26" rx="1" transform="rotate(-180 86 28)" fill="#888888"/>
<rect x="58" y="22" width="2" height="14" rx="1" transform="rotate(-180 58 22)" fill="#888888"/>
<rect x="114" y="22" width="2" height="14" rx="1" transform="rotate(-180 114 22)" fill="#888888"/>
<rect x="118" y="23" width="2" height="16" rx="1" transform="rotate(-180 118 23)" fill="#888888"/>
<rect x="42" y="28" width="2" height="26" rx="1" transform="rotate(-180 42 28)" fill="#888888"/>
<rect x="98" y="22" width="2" height="14" rx="1" transform="rotate(-180 98 22)" fill="#888888"/>
<rect x="146" y="22" width="2" height="14" rx="1" transform="rotate(-180 146 22)" fill="#888888"/>
<rect x="150" y="25" width="2" height="20" rx="1" transform="rotate(-180 150 25)" fill="#888888"/>
<rect x="38" y="28" width="2" height="26" rx="1" transform="rotate(-180 38 28)" fill="#888888"/>
<rect x="94" y="25" width="2" height="20" rx="1" transform="rotate(-180 94 25)" fill="#888888"/>
<rect x="46" y="25" width="2" height="20" rx="1" transform="rotate(-180 46 25)" fill="#888888"/>
<rect x="50" y="25" width="2" height="20" rx="1" transform="rotate(-180 50 25)" fill="#888888"/>
<rect x="54" y="25" width="2" height="20" rx="1" transform="rotate(-180 54 25)" fill="#888888"/>
<rect x="110" y="18" width="2" height="6" rx="1" transform="rotate(-180 110 18)" fill="#888888"/>
<rect x="106" y="20" width="2" height="10" rx="1" transform="rotate(-180 106 20)" fill="#888888"/>
<rect x="102" y="20" width="2" height="10" rx="1" transform="rotate(-180 102 20)" fill="#888888"/>
</svg>
