<svg width="186" height="30" viewBox="0 0 186 30" fill="none" xmlns="http://www.w3.org/2000/svg">
<rect x="178" y="29" width="2" height="28" rx="1" transform="rotate(-180 178 29)" fill="#888888"/>
<rect x="78" y="29" width="2" height="28" rx="1" transform="rotate(-180 78 29)" fill="#888888"/>
<rect x="182" y="27" width="2" height="24" rx="1" transform="rotate(-180 182 27)" fill="#888888"/>
<rect x="186" y="24" width="2" height="18" rx="1" transform="rotate(-180 186 24)" fill="#888888"/>
<rect x="134" y="22" width="2" height="15" rx="1" transform="rotate(-180 134 22)" fill="#888888"/>
<rect x="26" y="29" width="2" height="28" rx="1" transform="rotate(-180 26 29)" fill="#888888"/>
<rect x="2" y="18" width="2" height="6" rx="1" transform="rotate(-180 2 18)" fill="#888888"/>
<rect x="74" y="26" width="2" height="22" rx="1" transform="rotate(-180 74 26)" fill="#888888"/>
<rect x="130" y="26" width="2" height="22" rx="1" transform="rotate(-180 130 26)" fill="#888888"/>
<rect x="22" y="27" width="2" height="24" rx="1" transform="rotate(-180 22 27)" fill="#888888"/>
<rect x="170" y="22" width="2" height="15" rx="1" transform="rotate(-180 170 22)" fill="#888888"/>
<rect x="162" y="24" width="2" height="18" rx="1" transform="rotate(-180 162 24)" fill="#888888"/>
<rect x="166" y="21" width="2" height="12" rx="1" transform="rotate(-180 166 21)" fill="#888888"/>
<rect x="10" y="24" width="2" height="18" rx="1" transform="rotate(-180 10 24)" fill="#888888"/>
<rect x="6" y="19" width="2" height="8" rx="1" transform="rotate(-180 6 19)" fill="#888888"/>
<rect x="82" y="30" width="2" height="30" rx="1" transform="rotate(-180 82 30)" fill="#888888"/>
<rect x="70" y="22" width="2" height="15" rx="1" transform="rotate(-180 70 22)" fill="#888888"/>
<rect x="126" y="27" width="2" height="24" rx="1" transform="rotate(-180 126 27)" fill="#888888"/>
<rect x="18" y="29" width="2" height="28" rx="1" transform="rotate(-180 18 29)" fill="#888888"/>
<rect x="174" y="27" width="2" height="24" rx="1" transform="rotate(-180 174 27)" fill="#888888"/>
<rect x="66" y="22" width="2" height="15" rx="1" transform="rotate(-180 66 22)" fill="#888888"/>
<rect x="62" y="19" width="2" height="8" rx="1" transform="rotate(-180 62 19)" fill="#888888"/>
<rect x="122" y="30" width="2" height="30" rx="1" transform="rotate(-180 122 30)" fill="#888888"/>
<rect x="14" y="26" width="2" height="22" rx="1" transform="rotate(-180 14 26)" fill="#888888"/>
<rect x="154" y="26" width="2" height="22" rx="1" transform="rotate(-180 154 26)" fill="#888888"/>
<rect x="158" y="27" width="2" height="24" rx="1" transform="rotate(-180 158 27)" fill="#888888"/>
<rect x="142" y="18" width="2" height="6" rx="1" transform="rotate(-180 142 18)" fill="#888888"/>
<rect x="34" y="26" width="2" height="22" rx="1" transform="rotate(-180 34 26)" fill="#888888"/>
<rect x="90" y="24" width="2" height="18" rx="1" transform="rotate(-180 90 24)" fill="#888888"/>
<rect x="138" y="19" width="2" height="8" rx="1" transform="rotate(-180 138 19)" fill="#888888"/>
<rect x="30" y="30" width="2" height="30" rx="1" transform="rotate(-180 30 30)" fill="#888888"/>
<rect x="86" y="29" width="2" height="28" rx="1" transform="rotate(-180 86 29)" fill="#888888"/>
<rect x="58" y="19" width="2" height="8" rx="1" transform="rotate(-180 58 19)" fill="#888888"/>
<rect x="114" y="26" width="2" height="22" rx="1" transform="rotate(-180 114 26)" fill="#888888"/>
<rect x="118" y="29" width="2" height="28" rx="1" transform="rotate(-180 118 29)" fill="#888888"/>
<rect x="42" y="30" width="2" height="30" rx="1" transform="rotate(-180 42 30)" fill="#888888"/>
<rect x="98" y="21" width="2" height="12" rx="1" transform="rotate(-180 98 21)" fill="#888888"/>
<rect x="146" y="19" width="2" height="8" rx="1" transform="rotate(-180 146 19)" fill="#888888"/>
<rect x="150" y="22" width="2" height="15" rx="1" transform="rotate(-180 150 22)" fill="#888888"/>
<rect x="38" y="27" width="2" height="24" rx="1" transform="rotate(-180 38 27)" fill="#888888"/>
<rect x="94" y="21" width="2" height="12" rx="1" transform="rotate(-180 94 21)" fill="#888888"/>
<rect x="46" y="29" width="2" height="28" rx="1" transform="rotate(-180 46 29)" fill="#888888"/>
<rect x="50" y="26" width="2" height="22" rx="1" transform="rotate(-180 50 26)" fill="#888888"/>
<rect x="54" y="22" width="2" height="15" rx="1" transform="rotate(-180 54 22)" fill="#888888"/>
<rect x="110" y="18" width="2" height="6" rx="1" transform="rotate(-180 110 18)" fill="#888888"/>
<rect x="106" y="19" width="2" height="8" rx="1" transform="rotate(-180 106 19)" fill="#888888"/>
<rect x="102" y="19" width="2" height="8" rx="1" transform="rotate(-180 102 19)" fill="#888888"/>
</svg>
