<svg width="186" height="30" viewBox="0 0 186 30" fill="none" xmlns="http://www.w3.org/2000/svg">
<rect x="178" y="19.9999" width="2" height="10" rx="1" transform="rotate(-180 178 19.9999)" fill="#888888"/>
<rect x="78" y="20" width="2" height="9" rx="1" transform="rotate(-180 78 20)" fill="#888888"/>
<rect x="182" y="19.0002" width="2" height="8" rx="1" transform="rotate(-180 182 19.0002)" fill="#888888"/>
<rect x="186" y="18.0002" width="2" height="6" rx="1" transform="rotate(-180 186 18.0002)" fill="#888888"/>
<rect x="134" y="21" width="2" height="12" rx="1" transform="rotate(-180 134 21)" fill="#888888"/>
<rect x="26" y="20" width="2" height="10" rx="1" transform="rotate(-180 26 20)" fill="#888888"/>
<rect x="2" y="20" width="2" height="10" rx="1" transform="rotate(-180 2 20)" fill="#888888"/>
<rect x="74" y="22" width="2" height="14" rx="1" transform="rotate(-180 74 22)" fill="#888888"/>
<rect x="130" y="22" width="2" height="14" rx="1" transform="rotate(-180 130 22)" fill="#888888"/>
<rect x="22" y="21" width="2" height="12" rx="1" transform="rotate(-180 22 21)" fill="#888888"/>
<rect x="170" y="20.9999" width="2" height="12" rx="1" transform="rotate(-180 170 20.9999)" fill="#888888"/>
<rect x="162" y="20.9999" width="2" height="12" rx="1" transform="rotate(-180 162 20.9999)" fill="#888888"/>
<rect x="166" y="20.9999" width="2" height="12" rx="1" transform="rotate(-180 166 20.9999)" fill="#888888"/>
<rect x="10" y="23" width="2" height="16" rx="1" transform="rotate(-180 10 23)" fill="#888888"/>
<rect x="6" y="21" width="2" height="12" rx="1" transform="rotate(-180 6 21)" fill="#888888"/>
<rect x="82" y="22" width="2" height="14" rx="1" transform="rotate(-180 82 22)" fill="#888888"/>
<rect x="70" y="21" width="2" height="12" rx="1" transform="rotate(-180 70 21)" fill="#888888"/>
<rect x="126" y="21" width="2" height="12" rx="1" transform="rotate(-180 126 21)" fill="#888888"/>
<rect x="18" y="24" width="2" height="18" rx="1" transform="rotate(-180 18 24)" fill="#888888"/>
<rect x="174" y="23" width="2" height="16" rx="1" transform="rotate(-180 174 23)" fill="#888888"/>
<rect x="66" y="23" width="2" height="16" rx="1" transform="rotate(-180 66 23)" fill="#888888"/>
<rect x="62" y="26" width="2" height="22" rx="1" transform="rotate(-180 62 26)" fill="#888888"/>
<rect x="122" y="22" width="2" height="14" rx="1" transform="rotate(-180 122 22)" fill="#888888"/>
<rect x="14" y="26" width="2" height="22" rx="1" transform="rotate(-180 14 26)" fill="#888888"/>
<rect x="154" y="26" width="2" height="22" rx="1" transform="rotate(-180 154 26)" fill="#888888"/>
<rect x="158" y="23" width="2" height="16" rx="1" transform="rotate(-180 158 23)" fill="#888888"/>
<rect x="142" y="26" width="2" height="22" rx="1" transform="rotate(-180 142 26)" fill="#888888"/>
<rect x="34" y="23" width="2" height="16" rx="1" transform="rotate(-180 34 23)" fill="#888888"/>
<rect x="90" y="21" width="2" height="13" rx="1" transform="rotate(-180 90 21)" fill="#888888"/>
<rect x="138" y="24" width="2" height="18" rx="1" transform="rotate(-180 138 24)" fill="#888888"/>
<rect x="30" y="21" width="2" height="12" rx="1" transform="rotate(-180 30 21)" fill="#888888"/>
<rect x="86" y="24" width="2" height="18" rx="1" transform="rotate(-180 86 24)" fill="#888888"/>
<rect x="58" y="26" width="2" height="22" rx="1" transform="rotate(-180 58 26)" fill="#888888"/>
<rect x="114" y="27" width="2" height="24" rx="1" transform="rotate(-180 114 27)" fill="#888888"/>
<rect x="118" y="26" width="2" height="22" rx="1" transform="rotate(-180 118 26)" fill="#888888"/>
<rect x="42" y="25" width="2" height="20" rx="1" transform="rotate(-180 42 25)" fill="#888888"/>
<rect x="98" y="25" width="2" height="20" rx="1" transform="rotate(-180 98 25)" fill="#888888"/>
<rect x="146" y="30" width="2" height="30" rx="1" transform="rotate(-180 146 30)" fill="#888888"/>
<rect x="150" y="30" width="2" height="30" rx="1" transform="rotate(-180 150 30)" fill="#888888"/>
<rect x="38" y="26" width="2" height="22" rx="1" transform="rotate(-180 38 26)" fill="#888888"/>
<rect x="94" y="26" width="2" height="22" rx="1" transform="rotate(-180 94 26)" fill="#888888"/>
<rect x="46" y="28" width="2" height="26" rx="1" transform="rotate(-180 46 28)" fill="#888888"/>
<rect x="50" y="27" width="2" height="24" rx="1" transform="rotate(-180 50 27)" fill="#888888"/>
<rect x="54" y="30" width="2" height="30" rx="1" transform="rotate(-180 54 30)" fill="#888888"/>
<rect x="110" y="27" width="2" height="24" rx="1" transform="rotate(-180 110 27)" fill="#888888"/>
<rect x="106" y="30" width="2" height="30" rx="1" transform="rotate(-180 106 30)" fill="#888888"/>
<rect x="102" y="27" width="2" height="24" rx="1" transform="rotate(-180 102 27)" fill="#888888"/>
</svg>
