<svg width="186" height="30" viewBox="0 0 186 30" fill="none" xmlns="http://www.w3.org/2000/svg">
<rect x="186" y="18" width="2" height="6" rx="1" transform="rotate(-180 186 18)" fill="#888888"/>
<rect x="78" y="22" width="2" height="14" rx="1" transform="rotate(-180 78 22)" fill="#888888"/>
<rect x="134" y="23" width="2" height="16" rx="1" transform="rotate(-180 134 23)" fill="#888888"/>
<rect x="26" y="22" width="2" height="14" rx="1" transform="rotate(-180 26 22)" fill="#888888"/>
<rect x="182" y="19" width="2" height="8" rx="1" transform="rotate(-180 182 19)" fill="#888888"/>
<rect x="74" y="23" width="2" height="16" rx="1" transform="rotate(-180 74 23)" fill="#888888"/>
<rect x="130" y="24" width="2" height="18" rx="1" transform="rotate(-180 130 24)" fill="#888888"/>
<rect x="22" y="27" width="2" height="24" rx="1" transform="rotate(-180 22 27)" fill="#888888"/>
<rect x="170" y="23" width="2" height="16" rx="1" transform="rotate(-180 170 23)" fill="#888888"/>
<rect x="62" y="22" width="2" height="14" rx="1" transform="rotate(-180 62 22)" fill="#888888"/>
<rect x="118" y="26" width="2" height="22" rx="1" transform="rotate(-180 118 26)" fill="#888888"/>
<rect x="10" y="23" width="2" height="16" rx="1" transform="rotate(-180 10 23)" fill="#888888"/>
<rect x="6" y="22" width="2" height="14" rx="1" transform="rotate(-180 6 22)" fill="#888888"/>
<rect x="2" y="19" width="2" height="8" rx="1" transform="rotate(-180 2 19)" fill="#888888"/>
<rect x="154" y="23" width="2" height="16" rx="1" transform="rotate(-180 154 23)" fill="#888888"/>
<rect x="46" y="23" width="2" height="16" rx="1" transform="rotate(-180 46 23)" fill="#888888"/>
<rect x="102" y="22" width="2" height="14" rx="1" transform="rotate(-180 102 22)" fill="#888888"/>
<rect x="82" y="18" width="2" height="6" rx="1" transform="rotate(-180 82 18)" fill="#888888"/>
<rect x="178" y="21" width="2" height="12" rx="1" transform="rotate(-180 178 21)" fill="#888888"/>
<rect x="70" y="23" width="2" height="16" rx="1" transform="rotate(-180 70 23)" fill="#888888"/>
<rect x="126" y="29" width="2" height="28" rx="1" transform="rotate(-180 126 29)" fill="#888888"/>
<rect x="18" y="26" width="2" height="22" rx="1" transform="rotate(-180 18 26)" fill="#888888"/>
<rect x="174" y="21" width="2" height="12" rx="1" transform="rotate(-180 174 21)" fill="#888888"/>
<rect x="66" y="20" width="2" height="10" rx="1" transform="rotate(-180 66 20)" fill="#888888"/>
<rect x="122" y="30" width="2" height="30" rx="1" transform="rotate(-180 122 30)" fill="#888888"/>
<rect x="14" y="19" width="2" height="8" rx="1" transform="rotate(-180 14 19)" fill="#888888"/>
<rect x="150" y="26" width="2" height="22" rx="1" transform="rotate(-180 150 26)" fill="#888888"/>
<rect x="42" y="26" width="2" height="22" rx="1" transform="rotate(-180 42 26)" fill="#888888"/>
<rect x="98" y="24" width="2" height="18" rx="1" transform="rotate(-180 98 24)" fill="#888888"/>
<rect x="142" y="26" width="2" height="22" rx="1" transform="rotate(-180 142 26)" fill="#888888"/>
<rect x="34" y="30" width="2" height="30" rx="1" transform="rotate(-180 34 30)" fill="#888888"/>
<rect x="90" y="26" width="2" height="22" rx="1" transform="rotate(-180 90 26)" fill="#888888"/>
<rect x="138" y="26" width="2" height="22" rx="1" transform="rotate(-180 138 26)" fill="#888888"/>
<rect x="30" y="26" width="2" height="22" rx="1" transform="rotate(-180 30 26)" fill="#888888"/>
<rect x="86" y="22" width="2" height="14" rx="1" transform="rotate(-180 86 22)" fill="#888888"/>
<rect x="166" y="19" width="2" height="8" rx="1" transform="rotate(-180 166 19)" fill="#888888"/>
<rect x="58" y="23" width="2" height="16" rx="1" transform="rotate(-180 58 23)" fill="#888888"/>
<rect x="114" y="23" width="2" height="16" rx="1" transform="rotate(-180 114 23)" fill="#888888"/>
<rect x="158" y="19" width="2" height="8" rx="1" transform="rotate(-180 158 19)" fill="#888888"/>
<rect x="50" y="20" width="2" height="10" rx="1" transform="rotate(-180 50 20)" fill="#888888"/>
<rect x="106" y="23" width="2" height="16" rx="1" transform="rotate(-180 106 23)" fill="#888888"/>
<rect x="146" y="30" width="2" height="30" rx="1" transform="rotate(-180 146 30)" fill="#888888"/>
<rect x="38" y="30" width="2" height="30" rx="1" transform="rotate(-180 38 30)" fill="#888888"/>
<rect x="94" y="26" width="2" height="22" rx="1" transform="rotate(-180 94 26)" fill="#888888"/>
<rect x="162" y="21" width="2" height="12" rx="1" transform="rotate(-180 162 21)" fill="#888888"/>
<rect x="54" y="22" width="2" height="14" rx="1" transform="rotate(-180 54 22)" fill="#888888"/>
<rect x="110" y="24" width="2" height="18" rx="1" transform="rotate(-180 110 24)" fill="#888888"/>
</svg>
