<svg width="32" height="32" viewBox="0 0 32 32" fill="none" xmlns="http://www.w3.org/2000/svg">
<g id="logos:whatsapp-icon" clip-path="url(#clip0_290_478)">
<path id="Vector" d="M0.133369 15.8558C0.132593 18.6501 0.865995 21.3785 2.26055 23.7833L0 32L8.44656 29.7952C10.7828 31.0613 13.4003 31.7248 16.0603 31.7249H16.0673C24.8483 31.7249 31.9962 24.6116 32 15.8683C32.0017 11.6316 30.3458 7.64767 27.3374 4.65037C24.3294 1.65333 20.329 0.00193357 16.0666 0C7.28456 0 0.136995 7.11297 0.133369 15.8558Z" fill="url(#paint0_linear_290_478)"/>
<path id="Vector_2" d="M0.13375 15.856C0.132875 18.6506 0.86625 21.3787 2.2605 23.7834L0 32L8.44637 29.7953C10.7736 31.0585 13.3939 31.7245 16.0601 31.7255H16.067C24.848 31.7255 31.9963 24.6114 32 15.8687C32.0015 11.6316 30.3455 7.64736 27.3375 4.65017C24.3291 1.65334 20.3291 0.00174219 16.067 0C7.2845 0 0.137375 7.11313 0.133875 15.856H0.13375ZM5.16375 23.3693L4.84837 22.8709C3.52262 20.7723 2.82288 18.3472 2.82387 15.857C2.82675 8.59014 8.76725 2.678 16.072 2.678C19.6095 2.67949 22.934 4.05234 25.4345 6.54318C27.9349 9.03427 29.3108 12.3457 29.3099 15.8677C29.3066 23.1345 23.366 29.0474 16.067 29.0474H16.0618C13.6851 29.0461 11.3542 28.4107 9.3215 27.21L8.83775 26.9244L3.8255 28.2326L5.16375 23.3692V23.3693Z" fill="url(#paint1_linear_290_478)"/>
<path id="Vector_3" d="M12.0848 9.19662C11.7865 8.53888 11.4726 8.52561 11.189 8.51407C10.9568 8.50415 10.6913 8.5049 10.426 8.5049C10.1605 8.5049 9.72913 8.604 9.36451 8.99904C8.99951 9.39445 7.97101 10.35 7.97101 12.2934C7.97101 14.237 9.39763 16.1152 9.59651 16.379C9.79563 16.6423 12.3506 20.7582 16.3971 22.3415C19.7601 23.6574 20.4445 23.3957 21.1744 23.3297C21.9044 23.264 23.5299 22.3744 23.8615 21.452C24.1934 20.5297 24.1934 19.7391 24.0939 19.5739C23.9944 19.4093 23.7289 19.3105 23.3308 19.113C22.9325 18.9154 20.9753 17.9598 20.6104 17.8279C20.2454 17.6962 19.98 17.6305 19.7145 18.026C19.449 18.4209 18.6866 19.3105 18.4543 19.5739C18.2221 19.838 17.9898 19.8708 17.5918 19.6733C17.1934 19.4751 15.9113 19.0584 14.3901 17.7128C13.2066 16.6658 12.4076 15.3727 12.1754 14.9772C11.9431 14.5823 12.1505 14.3682 12.3501 14.1714C12.529 13.9944 12.7484 13.7101 12.9476 13.4795C13.1461 13.2488 13.2124 13.0842 13.3451 12.8208C13.478 12.5571 13.4115 12.3264 13.3121 12.1288C13.2124 11.9313 12.4388 9.97776 12.0848 9.19674" fill="white"/>
</g>
<defs>
<linearGradient id="paint0_linear_290_478" x1="16" y1="32" x2="16" y2="0" gradientUnits="userSpaceOnUse">
<stop stop-color="#1FAF38"/>
<stop offset="1" stop-color="#60D669"/>
</linearGradient>
<linearGradient id="paint1_linear_290_478" x1="16" y1="32" x2="16" y2="0" gradientUnits="userSpaceOnUse">
<stop stop-color="#F9F9F9"/>
<stop offset="1" stop-color="white"/>
</linearGradient>
<clipPath id="clip0_290_478">
<rect width="32" height="32" fill="white"/>
</clipPath>
</defs>
</svg>
