<svg width="24" height="24" viewBox="0 0 24 24" fill="none" xmlns="http://www.w3.org/2000/svg">
<g id="iomoney 1">
<path id="Vector" d="M15.3585 4.00903C10.8381 4.00903 7.20557 7.66592 7.20557 12.1354C7.20557 16.6418 10.8738 20.2619 15.3574 20.2619C19.8411 20.2619 23.5126 16.605 23.5126 12.1354C23.5126 7.66592 19.8421 4.00903 15.3585 4.00903ZM15.3585 15.1644C13.691 15.1644 12.3203 13.7976 12.3203 12.1354C12.3203 10.4733 13.691 9.10646 15.3585 9.10646C17.0261 9.10646 18.3973 10.4733 18.3973 12.1354C18.3599 13.7976 17.0261 15.1644 15.3585 15.1644Z" fill="#9747FF"/>
<path id="Vector_2" d="M7.20564 6.37V18.1901H4.31697L0.611328 6.37H7.20564Z" fill="#9747FF"/>
</g>
</svg>
